{
	"asset":{
		"generator":"Khronos glTF Blender I/O v4.5.48",
		"version":"2.0"
	},
	"scene":0,
	"scenes":[
		{
			"extras":{
				"blendermcp_server_running":1
			},
			"name":"Scene",
			"nodes":[
				0,
				1,
				2,
				3,
				4
			]
		}
	],
	"nodes":[
		{
			"mesh":0,
			"name":"Map_Ground"
		},
		{
			"name":"spawn_ct_1",
			"rotation":[
				0,
				-1,
				0,
				4.371138828673793e-08
			],
			"translation":[
				-4.5,
				0,
				5.25
			]
		},
		{
			"name":"spawn_ct_2",
			"rotation":[
				0,
				-1,
				0,
				4.371138828673793e-08
			],
			"translation":[
				-1.5,
				0,
				5.25
			]
		},
		{
			"name":"spawn_t_1",
			"translation":[
				4.5,
				0,
				-5.25
			]
		},
		{
			"name":"spawn_t_2",
			"translation":[
				1.5,
				0,
				-5.25
			]
		}
	],
	"materials":[
		{
			"doubleSided":true,
			"name":"Ground_Material",
			"pbrMetallicRoughness":{
				"baseColorFactor":[
					0.3499999940395355,
					0.3499999940395355,
					0.3499999940395355,
					1
				],
				"metallicFactor":0,
				"roughnessFactor":0.8999999761581421
			}
		}
	],
	"meshes":[
		{
			"name":"Plane",
			"primitives":[
				{
					"attributes":{
						"POSITION":0,
						"NORMAL":1,
						"TEXCOORD_0":2
					},
					"indices":3,
					"material":0
				}
			]
		}
	],
	"accessors":[
		{
			"bufferView":0,
			"componentType":5126,
			"count":24,
			"max":[
				7.5,
				0,
				7.5
			],
			"min":[
				-7.5,
				-0.30000001192092896,
				-7.5
			],
			"type":"VEC3"
		},
		{
			"bufferView":1,
			"componentType":5126,
			"count":24,
			"type":"VEC3"
		},
		{
			"bufferView":2,
			"componentType":5126,
			"count":24,
			"type":"VEC2"
		},
		{
			"bufferView":3,
			"componentType":5123,
			"count":36,
			"type":"SCALAR"
		}
	],
	"bufferViews":[
		{
			"buffer":0,
			"byteLength":288,
			"byteOffset":0,
			"target":34962
		},
		{
			"buffer":0,
			"byteLength":288,
			"byteOffset":288,
			"target":34962
		},
		{
			"buffer":0,
			"byteLength":192,
			"byteOffset":576,
			"target":34962
		},
		{
			"buffer":0,
			"byteLength":72,
			"byteOffset":768,
			"target":34963
		}
	],
	"buffers":[
		{
			"byteLength":840,
			"uri":"bank.bin"
		}
	]
}
