{
	"asset":{
		"generator":"Khronos glTF Blender I/O v4.5.48",
		"version":"2.0"
	},
	"scene":0,
	"scenes":[
		{
			"name":"Scene",
			"nodes":[
				0,
				1,
				2,
				3,
				4,
				5,
				6
			]
		}
	],
	"nodes":[
		{
			"mesh":0,
			"name":"Map_Ground-col",
			"scale":[
				2.9252288341522217,
				1,
				1.850165605545044
			]
		},
		{
			"name":"spawn_ct_1",
			"rotation":[
				0,
				-1,
				0,
				4.371138828673793e-08
			],
			"translation":[
				15.940563201904297,
				0,
				5.25
			]
		},
		{
			"name":"spawn_ct_2",
			"rotation":[
				0,
				-1,
				0,
				4.371138828673793e-08
			],
			"translation":[
				18.940563201904297,
				0,
				5.25
			]
		},
		{
			"name":"spawn_t_1",
			"translation":[
				4.5,
				0,
				-5.25
			]
		},
		{
			"name":"spawn_t_2",
			"translation":[
				1.5,
				0,
				-5.25
			]
		},
		{
			"mesh":1,
			"name":"wall_01-col",
			"rotation":[
				0,
				0,
				-1,
				0
			],
			"scale":[
				-1,
				-1,
				-3.028289318084717
			],
			"translation":[
				-12.29561996459961,
				0,
				-1.1067171096801758
			]
		},
		{
			"mesh":2,
			"name":"door_01-col",
			"rotation":[
				0,
				-1,
				0,
				1.6292068494294654e-07
			],
			"translation":[
				-0.06500932574272156,
				0.012127816677093506,
				7.871633529663086
			]
		}
	],
	"materials":[
		{
			"doubleSided":true,
			"name":"Ground_Material",
			"pbrMetallicRoughness":{
				"baseColorFactor":[
					0.3499999940395355,
					0.3499999940395355,
					0.3499999940395355,
					1
				],
				"metallicFactor":0,
				"roughnessFactor":0.8999999761581421
			}
		},
		{
			"doubleSided":true,
			"name":"Wall_Material.002",
			"pbrMetallicRoughness":{
				"baseColorFactor":[
					0.5,
					0.4000000059604645,
					0.3499999940395355,
					1
				],
				"metallicFactor":0,
				"roughnessFactor":0.800000011920929
			}
		},
		{
			"doubleSided":true,
			"name":"Wall_Material.003",
			"pbrMetallicRoughness":{
				"baseColorFactor":[
					0.5,
					0.4000000059604645,
					0.3499999940395355,
					1
				],
				"metallicFactor":0,
				"roughnessFactor":0.800000011920929
			}
		},
		{
			"doubleSided":true,
			"name":"Wall_Material.004",
			"pbrMetallicRoughness":{
				"baseColorFactor":[
					0.5,
					0.4000000059604645,
					0.3499999940395355,
					1
				],
				"metallicFactor":0,
				"roughnessFactor":0.800000011920929
			}
		},
		{
			"doubleSided":true,
			"name":"Wall_Material.005",
			"pbrMetallicRoughness":{
				"baseColorFactor":[
					0.5,
					0.4000000059604645,
					0.3499999940395355,
					1
				],
				"metallicFactor":0,
				"roughnessFactor":0.800000011920929
			}
		},
		{
			"doubleSided":true,
			"name":"Door_Material.001",
			"pbrMetallicRoughness":{
				"baseColorFactor":[
					0.4000000059604645,
					0.25,
					0.15000000596046448,
					1
				],
				"metallicFactor":0,
				"roughnessFactor":0.699999988079071
			}
		}
	],
	"meshes":[
		{
			"name":"Plane",
			"primitives":[
				{
					"attributes":{
						"POSITION":0,
						"NORMAL":1,
						"TEXCOORD_0":2
					},
					"indices":3,
					"material":0
				}
			]
		},
		{
			"name":"Cube.001",
			"primitives":[
				{
					"attributes":{
						"POSITION":4,
						"NORMAL":5,
						"TEXCOORD_0":6
					},
					"indices":7,
					"material":1
				},
				{
					"attributes":{
						"POSITION":8,
						"NORMAL":9,
						"TEXCOORD_0":10
					},
					"indices":7,
					"material":2
				},
				{
					"attributes":{
						"POSITION":11,
						"NORMAL":12,
						"TEXCOORD_0":13
					},
					"indices":14,
					"material":3
				},
				{
					"attributes":{
						"POSITION":15,
						"NORMAL":16,
						"TEXCOORD_0":17
					},
					"indices":18,
					"material":4
				}
			]
		},
		{
			"name":"Cube",
			"primitives":[
				{
					"attributes":{
						"POSITION":19,
						"NORMAL":20,
						"TEXCOORD_0":21
					},
					"indices":7,
					"material":5
				}
			]
		}
	],
	"accessors":[
		{
			"bufferView":0,
			"componentType":5126,
			"count":24,
			"max":[
				7.5,
				0,
				7.5
			],
			"min":[
				-7.5,
				-0.30000001192092896,
				-7.5
			],
			"type":"VEC3"
		},
		{
			"bufferView":1,
			"componentType":5126,
			"count":24,
			"type":"VEC3"
		},
		{
			"bufferView":2,
			"componentType":5126,
			"count":24,
			"type":"VEC2"
		},
		{
			"bufferView":3,
			"componentType":5123,
			"count":36,
			"type":"SCALAR"
		},
		{
			"bufferView":4,
			"componentType":5126,
			"count":24,
			"max":[
				0.10000000149011612,
				2,
				3
			],
			"min":[
				-0.10000000149011612,
				0,
				-3
			],
			"type":"VEC3"
		},
		{
			"bufferView":5,
			"componentType":5126,
			"count":24,
			"type":"VEC3"
		},
		{
			"bufferView":6,
			"componentType":5126,
			"count":24,
			"type":"VEC2"
		},
		{
			"bufferView":7,
			"componentType":5123,
			"count":36,
			"type":"SCALAR"
		},
		{
			"bufferView":8,
			"componentType":5126,
			"count":24,
			"max":[
				20.685964584350586,
				2,
				3
			],
			"min":[
				20.485963821411133,
				0,
				-3
			],
			"type":"VEC3"
		},
		{
			"bufferView":9,
			"componentType":5126,
			"count":24,
			"type":"VEC3"
		},
		{
			"bufferView":10,
			"componentType":5126,
			"count":24,
			"type":"VEC2"
		},
		{
			"bufferView":11,
			"componentType":5126,
			"count":28,
			"max":[
				20.68596649169922,
				2,
				3.0010550022125244
			],
			"min":[
				-0.09999942779541016,
				0,
				2.9350106716156006
			],
			"type":"VEC3"
		},
		{
			"bufferView":12,
			"componentType":5126,
			"count":28,
			"type":"VEC3"
		},
		{
			"bufferView":13,
			"componentType":5126,
			"count":28,
			"type":"VEC2"
		},
		{
			"bufferView":14,
			"componentType":5123,
			"count":48,
			"type":"SCALAR"
		},
		{
			"bufferView":15,
			"componentType":5126,
			"count":62,
			"max":[
				20.68596649169922,
				2,
				-2.9333853721618652
			],
			"min":[
				-0.09999942779541016,
				0,
				-2.999429702758789
			],
			"type":"VEC3"
		},
		{
			"bufferView":16,
			"componentType":5126,
			"count":62,
			"type":"VEC3"
		},
		{
			"bufferView":17,
			"componentType":5126,
			"count":62,
			"type":"VEC2"
		},
		{
			"bufferView":18,
			"componentType":5123,
			"count":120,
			"type":"SCALAR"
		},
		{
			"bufferView":19,
			"componentType":5126,
			"count":24,
			"max":[
				2.384185791015625e-07,
				2,
				0.02500000037252903
			],
			"min":[
				-0.8999998569488525,
				0,
				-0.02500000037252903
			],
			"type":"VEC3"
		},
		{
			"bufferView":20,
			"componentType":5126,
			"count":24,
			"type":"VEC3"
		},
		{
			"bufferView":21,
			"componentType":5126,
			"count":24,
			"type":"VEC2"
		}
	],
	"bufferViews":[
		{
			"buffer":0,
			"byteLength":288,
			"byteOffset":0,
			"target":34962
		},
		{
			"buffer":0,
			"byteLength":288,
			"byteOffset":288,
			"target":34962
		},
		{
			"buffer":0,
			"byteLength":192,
			"byteOffset":576,
			"target":34962
		},
		{
			"buffer":0,
			"byteLength":72,
			"byteOffset":768,
			"target":34963
		},
		{
			"buffer":0,
			"byteLength":288,
			"byteOffset":840,
			"target":34962
		},
		{
			"buffer":0,
			"byteLength":288,
			"byteOffset":1128,
			"target":34962
		},
		{
			"buffer":0,
			"byteLength":192,
			"byteOffset":1416,
			"target":34962
		},
		{
			"buffer":0,
			"byteLength":72,
			"byteOffset":1608,
			"target":34963
		},
		{
			"buffer":0,
			"byteLength":288,
			"byteOffset":1680,
			"target":34962
		},
		{
			"buffer":0,
			"byteLength":288,
			"byteOffset":1968,
			"target":34962
		},
		{
			"buffer":0,
			"byteLength":192,
			"byteOffset":2256,
			"target":34962
		},
		{
			"buffer":0,
			"byteLength":336,
			"byteOffset":2448,
			"target":34962
		},
		{
			"buffer":0,
			"byteLength":336,
			"byteOffset":2784,
			"target":34962
		},
		{
			"buffer":0,
			"byteLength":224,
			"byteOffset":3120,
			"target":34962
		},
		{
			"buffer":0,
			"byteLength":96,
			"byteOffset":3344,
			"target":34963
		},
		{
			"buffer":0,
			"byteLength":744,
			"byteOffset":3440,
			"target":34962
		},
		{
			"buffer":0,
			"byteLength":744,
			"byteOffset":4184,
			"target":34962
		},
		{
			"buffer":0,
			"byteLength":496,
			"byteOffset":4928,
			"target":34962
		},
		{
			"buffer":0,
			"byteLength":240,
			"byteOffset":5424,
			"target":34963
		},
		{
			"buffer":0,
			"byteLength":288,
			"byteOffset":5664,
			"target":34962
		},
		{
			"buffer":0,
			"byteLength":288,
			"byteOffset":5952,
			"target":34962
		},
		{
			"buffer":0,
			"byteLength":192,
			"byteOffset":6240,
			"target":34962
		}
	],
	"buffers":[
		{
			"byteLength":6432,
			"uri":"conveniens_store.bin"
		}
	]
}
