{
	"asset":{
		"generator":"Khronos glTF Blender I/O v4.5.48",
		"version":"2.0"
	},
	"scene":0,
	"scenes":[
		{
			"name":"Scene",
			"nodes":[
				52,
				53,
				54,
				55,
				56,
				57,
				58,
				59,
				60,
				61,
				62
			]
		}
	],
	"nodes":[
		{
			"mesh":0,
			"name":"wall_pillar_10-col",
			"translation":[
				-6.103515625e-05,
				0,
				-6.103515625e-05
			]
		},
		{
			"children":[
				0
			],
			"name":"Cube__10_",
			"translation":[
				312.72955322265625,
				-2160.505859375,
				5994.68505859375
			]
		},
		{
			"mesh":1,
			"name":"wall_pillar_11-col",
			"translation":[
				0,
				0,
				-0.0001220703125
			]
		},
		{
			"children":[
				2
			],
			"name":"Cube__11_",
			"translation":[
				-987.2704467773438,
				-2160.505859375,
				6794.685546875
			]
		},
		{
			"mesh":2,
			"name":"wall_pillar_6-col",
			"translation":[
				0,
				0,
				0.0001220703125
			]
		},
		{
			"children":[
				4
			],
			"name":"Cube__6_",
			"translation":[
				1712.7294921875,
				-2160.505859375,
				3494.68505859375
			]
		},
		{
			"mesh":3,
			"name":"wall_pillar_7-col",
			"translation":[
				-0.0001220703125,
				0,
				0
			]
		},
		{
			"children":[
				6
			],
			"name":"Cube__7_",
			"translation":[
				-787.2704467773438,
				-2160.505859375,
				3294.68505859375
			]
		},
		{
			"mesh":4,
			"name":"wall_pillar_8-col"
		},
		{
			"children":[
				8
			],
			"name":"Cube__8_",
			"translation":[
				2112.7294921875,
				-2160.505859375,
				5194.685546875
			]
		},
		{
			"mesh":5,
			"name":"wall_pillar_9-col",
			"translation":[
				0.0001220703125,
				0,
				-6.103515625e-05
			]
		},
		{
			"children":[
				10
			],
			"name":"Cube__9_",
			"translation":[
				2912.7294921875,
				-2160.505859375,
				6194.68505859375
			]
		},
		{
			"mesh":6,
			"name":"wall_obstacle_0-col",
			"translation":[
				0.0001220703125,
				0,
				0
			]
		},
		{
			"children":[
				12
			],
			"name":"PolyShape",
			"translation":[
				2912.7294921875,
				-2160.505859375,
				5394.68505859375
			]
		},
		{
			"mesh":7,
			"name":"wall_obstacle_10-col",
			"translation":[
				3.0517578125e-05,
				0,
				0
			]
		},
		{
			"children":[
				14
			],
			"name":"PolyShape__10_",
			"translation":[
				1312.7294921875,
				-2160.505859375,
				6994.685546875
			]
		},
		{
			"mesh":8,
			"name":"wall_obstacle_11-col",
			"translation":[
				0.0001220703125,
				0,
				-0.000244140625
			]
		},
		{
			"children":[
				16
			],
			"name":"PolyShape__11_",
			"translation":[
				2912.7294921875,
				-2160.505859375,
				7494.68505859375
			]
		},
		{
			"mesh":9,
			"name":"wall_obstacle_1-col"
		},
		{
			"children":[
				18
			],
			"name":"PolyShape__1_",
			"translation":[
				1912.7294921875,
				-2160.505859375,
				4094.68505859375
			]
		},
		{
			"mesh":10,
			"name":"wall_obstacle_2-col",
			"translation":[
				0,
				0,
				-6.103515625e-05
			]
		},
		{
			"children":[
				20
			],
			"name":"PolyShape__2_",
			"scale":[
				1,
				0.4999999701976776,
				1
			],
			"translation":[
				1212.7294921875,
				-2160.505859375,
				6194.68505859375
			]
		},
		{
			"mesh":11,
			"name":"wall_obstacle_3-col",
			"translation":[
				0,
				0,
				-0.000244140625
			]
		},
		{
			"children":[
				22
			],
			"name":"PolyShape__3_",
			"translation":[
				-587.2704467773438,
				-2160.505859375,
				7494.68505859375
			]
		},
		{
			"mesh":12,
			"name":"wall_obstacle_4-col"
		},
		{
			"children":[
				24
			],
			"name":"PolyShape__4_",
			"scale":[
				1,
				0.4999999701976776,
				1
			],
			"translation":[
				2012.7294921875,
				-2160.505859375,
				7094.685546875
			]
		},
		{
			"mesh":13,
			"name":"wall_obstacle_5-col",
			"translation":[
				-6.103515625e-05,
				0,
				0
			]
		},
		{
			"children":[
				26
			],
			"name":"PolyShape__5_",
			"scale":[
				1,
				0.4999999701976776,
				1
			],
			"translation":[
				412.72955322265625,
				-2160.505859375,
				5194.685546875
			]
		},
		{
			"mesh":14,
			"name":"wall_obstacle_6-col",
			"translation":[
				0,
				0,
				-3.0517578125e-05
			]
		},
		{
			"children":[
				28
			],
			"name":"PolyShape__6_",
			"scale":[
				1,
				0.4999999701976776,
				1
			],
			"translation":[
				-687.2704467773438,
				-2160.505859375,
				5794.68505859375
			]
		},
		{
			"mesh":15,
			"name":"wall_obstacle_7-col",
			"translation":[
				0,
				0,
				0.0001220703125
			]
		},
		{
			"children":[
				30
			],
			"name":"PolyShape__7_",
			"translation":[
				-687.2704467773438,
				-2160.505859375,
				4294.68505859375
			]
		},
		{
			"mesh":16,
			"name":"wall_obstacle_8-col"
		},
		{
			"children":[
				32
			],
			"name":"PolyShape__8_",
			"scale":[
				1,
				0.4999999701976776,
				1
			],
			"translation":[
				2712.7294921875,
				-2160.505859375,
				4194.68505859375
			]
		},
		{
			"mesh":17,
			"name":"wall_obstacle_9-col",
			"translation":[
				-9.1552734375e-05,
				0,
				-6.103515625e-05
			]
		},
		{
			"children":[
				34
			],
			"name":"PolyShape__9_",
			"rotation":[
				0,
				0.8660244345664978,
				0,
				0.5000016689300537
			],
			"translation":[
				312.72955322265625,
				-2160.505859375,
				3394.68505859375
			]
		},
		{
			"children":[
				1,
				3,
				5,
				7,
				9,
				11,
				13,
				15,
				17,
				19,
				21,
				23,
				25,
				27,
				29,
				31,
				33,
				35
			],
			"name":"Obstacles",
			"translation":[
				-531.5191650390625,
				1419.966796875,
				-1172.19970703125
			]
		},
		{
			"mesh":18,
			"name":"Map_Ground-col",
			"translation":[
				3.814697265625e-06,
				0,
				3.814697265625e-06
			]
		},
		{
			"children":[
				37
			],
			"name":"Cube",
			"scale":[
				50,
				1,
				49.999996185302734
			],
			"translation":[
				-1487.270263671875,
				-2260.505859375,
				2894.68505859375
			]
		},
		{
			"mesh":19,
			"name":"wall_outer_1-col",
			"translation":[
				0.000244140625,
				0,
				0
			]
		},
		{
			"children":[
				39
			],
			"name":"Cube__1_",
			"scale":[
				1,
				3.999999761581421,
				48.999996185302734
			],
			"translation":[
				-1387.270263671875,
				-2160.505859375,
				2894.68505859375
			]
		},
		{
			"mesh":20,
			"name":"wall_outer_2-col",
			"translation":[
				0.0002908310852944851,
				0,
				0
			]
		},
		{
			"children":[
				41
			],
			"name":"Cube__2_",
			"rotation":[
				0,
				0.7071056365966797,
				0,
				0.7071079015731812
			],
			"scale":[
				1,
				3.999999761581421,
				48.999996185302734
			],
			"translation":[
				-1387.270263671875,
				-2160.505859375,
				2894.68505859375
			]
		},
		{
			"mesh":21,
			"name":"wall_outer_3-col",
			"translation":[
				0.000244140625,
				0,
				0
			]
		},
		{
			"children":[
				43
			],
			"name":"Cube__3_",
			"scale":[
				1,
				3.999999761581421,
				48.999996185302734
			],
			"translation":[
				3512.729736328125,
				-2160.505859375,
				2994.68505859375
			]
		},
		{
			"mesh":22,
			"name":"wall_outer_4-col",
			"translation":[
				0.0005328971892595291,
				0,
				-3.490189556032419e-06
			]
		},
		{
			"children":[
				45
			],
			"name":"Cube__4_",
			"rotation":[
				0,
				-0.7071056365966797,
				0,
				0.7071079015731812
			],
			"scale":[
				1,
				3.999999761581421,
				48.999996185302734
			],
			"translation":[
				3412.729736328125,
				-2160.505859375,
				7894.68505859375
			]
		},
		{
			"children":[
				38,
				40,
				42,
				44,
				46
			],
			"name":"Walls",
			"translation":[
				-531.5191650390625,
				1419.966796875,
				-1172.19970703125
			]
		},
		{
			"children":[
				36,
				47
			],
			"name":"Arena_Map_4_1",
			"translation":[
				-2979.999755859375,
				839.9998779296875,
				-1720.000244140625
			]
		},
		{
			"children":[
				48
			],
			"name":"Arena_Map_4",
			"translation":[
				0.000244140625,
				7.62939453125e-06,
				-0.000244140625
			]
		},
		{
			"children":[
				49
			],
			"name":"RootNode",
			"translation":[
				0.000244140625,
				7.62939453125e-06,
				-0.000244140625
			]
		},
		{
			"children":[
				50
			],
			"name":"6aaf6fa3ef1c4befb8003a833b2394d9.fbx",
			"rotation":[
				0.70710688829422,
				0,
				0,
				0.7071066498756409
			],
			"scale":[
				0.009999999776482582,
				0.010000000707805157,
				0.010000000707805157
			]
		},
		{
			"children":[
				51
			],
			"name":"Sketchfab_model",
			"rotation":[
				-0.70710688829422,
				0,
				0,
				0.7071066498756409
			],
			"translation":[
				25,
				-0.9950000047683716,
				-25
			]
		},
		{
			"name":"spawn_ct_1",
			"rotation":[
				0,
				0.7071068286895752,
				0,
				0.7071068286895752
			],
			"translation":[
				-10,
				-0.0003870725631713867,
				20
			]
		},
		{
			"name":"spawn_ct_2",
			"rotation":[
				0,
				0.7071068286895752,
				0,
				0.7071068286895752
			],
			"translation":[
				-5,
				-0.0003870725631713867,
				20
			]
		},
		{
			"name":"spawn_ct_3",
			"rotation":[
				0,
				0.7071068286895752,
				0,
				0.7071068286895752
			],
			"translation":[
				0,
				-0.0003870725631713867,
				20
			]
		},
		{
			"name":"spawn_ct_4",
			"rotation":[
				0,
				0.7071068286895752,
				0,
				0.7071068286895752
			],
			"translation":[
				5,
				-0.0003870725631713867,
				20
			]
		},
		{
			"name":"spawn_ct_5",
			"rotation":[
				0,
				0.7071068286895752,
				0,
				0.7071068286895752
			],
			"translation":[
				10,
				-0.0003870725631713867,
				20
			]
		},
		{
			"name":"spawn_t_1",
			"rotation":[
				0,
				-0.7071068286895752,
				0,
				0.7071068286895752
			],
			"translation":[
				-10,
				-0.0003870725631713867,
				-20
			]
		},
		{
			"name":"spawn_t_2",
			"rotation":[
				0,
				-0.7071068286895752,
				0,
				0.7071068286895752
			],
			"translation":[
				-5,
				-0.0003870725631713867,
				-20
			]
		},
		{
			"name":"spawn_t_3",
			"rotation":[
				0,
				-0.7071068286895752,
				0,
				0.7071068286895752
			],
			"translation":[
				0,
				-0.0003870725631713867,
				-20
			]
		},
		{
			"name":"spawn_t_4",
			"rotation":[
				0,
				-0.7071068286895752,
				0,
				0.7071068286895752
			],
			"translation":[
				5,
				-0.0003870725631713867,
				-20
			]
		},
		{
			"name":"spawn_t_5",
			"rotation":[
				0,
				-0.7071068286895752,
				0,
				0.7071068286895752
			],
			"translation":[
				10,
				-0.0003870725631713867,
				-20
			]
		}
	],
	"materials":[
		{
			"doubleSided":true,
			"name":"Orange_Playground_Base_Color",
			"pbrMetallicRoughness":{
				"baseColorTexture":{
					"index":0
				},
				"metallicFactor":0,
				"roughnessFactor":0.6000000238418579
			}
		},
		{
			"doubleSided":true,
			"name":"Orange_Playground_Base_Color_1",
			"pbrMetallicRoughness":{
				"baseColorTexture":{
					"index":1
				},
				"metallicFactor":0,
				"roughnessFactor":0.6000000238418579
			}
		},
		{
			"doubleSided":true,
			"name":"Black_1",
			"pbrMetallicRoughness":{
				"baseColorTexture":{
					"index":2
				},
				"metallicFactor":0,
				"roughnessFactor":0.6000000238418579
			}
		},
		{
			"doubleSided":true,
			"name":"Black_2",
			"pbrMetallicRoughness":{
				"baseColorTexture":{
					"index":3
				},
				"metallicFactor":0,
				"roughnessFactor":0.6000000238418579
			}
		}
	],
	"meshes":[
		{
			"name":"Cube__10__Orange_Playground_Base_Color_0",
			"primitives":[
				{
					"attributes":{
						"POSITION":0,
						"NORMAL":1,
						"TEXCOORD_0":2,
						"TEXCOORD_1":3
					},
					"indices":4,
					"material":0
				}
			]
		},
		{
			"name":"Cube__11__Orange_Playground_Base_Color_0",
			"primitives":[
				{
					"attributes":{
						"POSITION":5,
						"NORMAL":6,
						"TEXCOORD_0":7,
						"TEXCOORD_1":8
					},
					"indices":4,
					"material":0
				}
			]
		},
		{
			"name":"Cube__6__Orange_Playground_Base_Color_0",
			"primitives":[
				{
					"attributes":{
						"POSITION":9,
						"NORMAL":10,
						"TEXCOORD_0":11,
						"TEXCOORD_1":12
					},
					"indices":4,
					"material":0
				}
			]
		},
		{
			"name":"Cube__7__Orange_Playground_Base_Color_0",
			"primitives":[
				{
					"attributes":{
						"POSITION":13,
						"NORMAL":14,
						"TEXCOORD_0":15,
						"TEXCOORD_1":16
					},
					"indices":4,
					"material":0
				}
			]
		},
		{
			"name":"Cube__8__Orange_Playground_Base_Color_0",
			"primitives":[
				{
					"attributes":{
						"POSITION":17,
						"NORMAL":18,
						"TEXCOORD_0":19,
						"TEXCOORD_1":20
					},
					"indices":4,
					"material":0
				}
			]
		},
		{
			"name":"Cube__9__Orange_Playground_Base_Color_0",
			"primitives":[
				{
					"attributes":{
						"POSITION":21,
						"NORMAL":22,
						"TEXCOORD_0":23,
						"TEXCOORD_1":24
					},
					"indices":4,
					"material":0
				}
			]
		},
		{
			"name":"PolyShape_Orange_Playground_Base_Color_0",
			"primitives":[
				{
					"attributes":{
						"POSITION":25,
						"NORMAL":26,
						"TEXCOORD_0":27,
						"TEXCOORD_1":28
					},
					"indices":29,
					"material":0
				}
			]
		},
		{
			"name":"PolyShape__10__Orange_Playground_Base_Color_0",
			"primitives":[
				{
					"attributes":{
						"POSITION":30,
						"NORMAL":31,
						"TEXCOORD_0":32,
						"TEXCOORD_1":33
					},
					"indices":29,
					"material":0
				}
			]
		},
		{
			"name":"PolyShape__11__Orange_Playground_Base_Color_0",
			"primitives":[
				{
					"attributes":{
						"POSITION":34,
						"NORMAL":35,
						"TEXCOORD_0":36,
						"TEXCOORD_1":37
					},
					"indices":38,
					"material":0
				}
			]
		},
		{
			"name":"PolyShape__1__Orange_Playground_Base_Color_0",
			"primitives":[
				{
					"attributes":{
						"POSITION":39,
						"NORMAL":40,
						"TEXCOORD_0":41,
						"TEXCOORD_1":42
					},
					"indices":29,
					"material":0
				}
			]
		},
		{
			"name":"PolyShape__2__Orange_Playground_Base_Color_1_0",
			"primitives":[
				{
					"attributes":{
						"POSITION":43,
						"NORMAL":44,
						"TEXCOORD_0":45,
						"TEXCOORD_1":46
					},
					"indices":38,
					"material":1
				}
			]
		},
		{
			"name":"PolyShape__3__Orange_Playground_Base_Color_0",
			"primitives":[
				{
					"attributes":{
						"POSITION":47,
						"NORMAL":48,
						"TEXCOORD_0":49,
						"TEXCOORD_1":50
					},
					"indices":51,
					"material":0
				}
			]
		},
		{
			"name":"PolyShape__4__Orange_Playground_Base_Color_1_0",
			"primitives":[
				{
					"attributes":{
						"POSITION":52,
						"NORMAL":53,
						"TEXCOORD_0":54,
						"TEXCOORD_1":55
					},
					"indices":38,
					"material":1
				}
			]
		},
		{
			"name":"PolyShape__5__Orange_Playground_Base_Color_1_0",
			"primitives":[
				{
					"attributes":{
						"POSITION":56,
						"NORMAL":57,
						"TEXCOORD_0":58,
						"TEXCOORD_1":59
					},
					"indices":38,
					"material":1
				}
			]
		},
		{
			"name":"PolyShape__6__Orange_Playground_Base_Color_1_0",
			"primitives":[
				{
					"attributes":{
						"POSITION":60,
						"NORMAL":61,
						"TEXCOORD_0":62,
						"TEXCOORD_1":63
					},
					"indices":38,
					"material":1
				}
			]
		},
		{
			"name":"PolyShape__7__Orange_Playground_Base_Color_0",
			"primitives":[
				{
					"attributes":{
						"POSITION":64,
						"NORMAL":65,
						"TEXCOORD_0":66,
						"TEXCOORD_1":67
					},
					"indices":29,
					"material":0
				}
			]
		},
		{
			"name":"PolyShape__8__Orange_Playground_Base_Color_1_0",
			"primitives":[
				{
					"attributes":{
						"POSITION":68,
						"NORMAL":69,
						"TEXCOORD_0":70,
						"TEXCOORD_1":71
					},
					"indices":38,
					"material":1
				}
			]
		},
		{
			"name":"PolyShape__9__Orange_Playground_Base_Color_0",
			"primitives":[
				{
					"attributes":{
						"POSITION":72,
						"NORMAL":73,
						"TEXCOORD_0":74,
						"TEXCOORD_1":75
					},
					"indices":29,
					"material":0
				}
			]
		},
		{
			"name":"Cube_Black_1_0",
			"primitives":[
				{
					"attributes":{
						"POSITION":76,
						"NORMAL":77,
						"TEXCOORD_0":78,
						"TEXCOORD_1":79
					},
					"indices":4,
					"material":2
				}
			]
		},
		{
			"name":"Cube__1__Black_2_0",
			"primitives":[
				{
					"attributes":{
						"POSITION":80,
						"NORMAL":81,
						"TEXCOORD_0":82,
						"TEXCOORD_1":83
					},
					"indices":4,
					"material":3
				}
			]
		},
		{
			"name":"Cube__2__Black_2_0",
			"primitives":[
				{
					"attributes":{
						"POSITION":84,
						"NORMAL":85,
						"TEXCOORD_0":86,
						"TEXCOORD_1":87
					},
					"indices":4,
					"material":3
				}
			]
		},
		{
			"name":"Cube__3__Black_2_0",
			"primitives":[
				{
					"attributes":{
						"POSITION":88,
						"NORMAL":89,
						"TEXCOORD_0":90,
						"TEXCOORD_1":91
					},
					"indices":4,
					"material":3
				}
			]
		},
		{
			"name":"Cube__4__Black_2_0",
			"primitives":[
				{
					"attributes":{
						"POSITION":92,
						"NORMAL":93,
						"TEXCOORD_0":94,
						"TEXCOORD_1":95
					},
					"indices":4,
					"material":3
				}
			]
		}
	],
	"textures":[
		{
			"sampler":0,
			"source":0
		},
		{
			"sampler":0,
			"source":0
		},
		{
			"sampler":0,
			"source":1
		},
		{
			"sampler":0,
			"source":2
		}
	],
	"images":[
		{
			"mimeType":"image/png",
			"name":"Image_0",
			"uri":"Image_0.png"
		},
		{
			"mimeType":"image/png",
			"name":"Image_1",
			"uri":"Image_1.png"
		},
		{
			"mimeType":"image/png",
			"name":"Image_2",
			"uri":"Image_2.png"
		}
	],
	"accessors":[
		{
			"bufferView":0,
			"componentType":5126,
			"count":24,
			"max":[
				0,
				500,
				0
			],
			"min":[
				-100,
				0,
				-100
			],
			"type":"VEC3"
		},
		{
			"bufferView":1,
			"componentType":5126,
			"count":24,
			"type":"VEC3"
		},
		{
			"bufferView":2,
			"componentType":5126,
			"count":24,
			"type":"VEC2"
		},
		{
			"bufferView":3,
			"componentType":5126,
			"count":24,
			"type":"VEC2"
		},
		{
			"bufferView":4,
			"componentType":5123,
			"count":36,
			"type":"SCALAR"
		},
		{
			"bufferView":5,
			"componentType":5126,
			"count":24,
			"max":[
				0,
				500,
				0
			],
			"min":[
				-100,
				0,
				-100
			],
			"type":"VEC3"
		},
		{
			"bufferView":6,
			"componentType":5126,
			"count":24,
			"type":"VEC3"
		},
		{
			"bufferView":7,
			"componentType":5126,
			"count":24,
			"type":"VEC2"
		},
		{
			"bufferView":8,
			"componentType":5126,
			"count":24,
			"type":"VEC2"
		},
		{
			"bufferView":9,
			"componentType":5126,
			"count":24,
			"max":[
				0,
				500,
				0
			],
			"min":[
				-100,
				0,
				-100
			],
			"type":"VEC3"
		},
		{
			"bufferView":10,
			"componentType":5126,
			"count":24,
			"type":"VEC3"
		},
		{
			"bufferView":11,
			"componentType":5126,
			"count":24,
			"type":"VEC2"
		},
		{
			"bufferView":12,
			"componentType":5126,
			"count":24,
			"type":"VEC2"
		},
		{
			"bufferView":13,
			"componentType":5126,
			"count":24,
			"max":[
				0,
				500,
				0
			],
			"min":[
				-100,
				0,
				-100
			],
			"type":"VEC3"
		},
		{
			"bufferView":14,
			"componentType":5126,
			"count":24,
			"type":"VEC3"
		},
		{
			"bufferView":15,
			"componentType":5126,
			"count":24,
			"type":"VEC2"
		},
		{
			"bufferView":16,
			"componentType":5126,
			"count":24,
			"type":"VEC2"
		},
		{
			"bufferView":17,
			"componentType":5126,
			"count":24,
			"max":[
				0,
				500,
				0
			],
			"min":[
				-100,
				0,
				-100
			],
			"type":"VEC3"
		},
		{
			"bufferView":18,
			"componentType":5126,
			"count":24,
			"type":"VEC3"
		},
		{
			"bufferView":19,
			"componentType":5126,
			"count":24,
			"type":"VEC2"
		},
		{
			"bufferView":20,
			"componentType":5126,
			"count":24,
			"type":"VEC2"
		},
		{
			"bufferView":21,
			"componentType":5126,
			"count":24,
			"max":[
				0,
				500,
				0
			],
			"min":[
				-100,
				0,
				-100
			],
			"type":"VEC3"
		},
		{
			"bufferView":22,
			"componentType":5126,
			"count":24,
			"type":"VEC3"
		},
		{
			"bufferView":23,
			"componentType":5126,
			"count":24,
			"type":"VEC2"
		},
		{
			"bufferView":24,
			"componentType":5126,
			"count":24,
			"type":"VEC2"
		},
		{
			"bufferView":25,
			"componentType":5126,
			"count":18,
			"max":[
				0,
				400,
				200
			],
			"min":[
				-500,
				0,
				-500
			],
			"type":"VEC3"
		},
		{
			"bufferView":26,
			"componentType":5126,
			"count":18,
			"type":"VEC3"
		},
		{
			"bufferView":27,
			"componentType":5126,
			"count":18,
			"type":"VEC2"
		},
		{
			"bufferView":28,
			"componentType":5126,
			"count":18,
			"type":"VEC2"
		},
		{
			"bufferView":29,
			"componentType":5123,
			"count":24,
			"type":"SCALAR"
		},
		{
			"bufferView":30,
			"componentType":5126,
			"count":18,
			"max":[
				0,
				400,
				600
			],
			"min":[
				-500,
				0,
				0
			],
			"type":"VEC3"
		},
		{
			"bufferView":31,
			"componentType":5126,
			"count":18,
			"type":"VEC3"
		},
		{
			"bufferView":32,
			"componentType":5126,
			"count":18,
			"type":"VEC2"
		},
		{
			"bufferView":33,
			"componentType":5126,
			"count":18,
			"type":"VEC2"
		},
		{
			"bufferView":34,
			"componentType":5126,
			"count":28,
			"max":[
				0,
				400,
				0
			],
			"min":[
				-200,
				0,
				-700
			],
			"type":"VEC3"
		},
		{
			"bufferView":35,
			"componentType":5126,
			"count":28,
			"type":"VEC3"
		},
		{
			"bufferView":36,
			"componentType":5126,
			"count":28,
			"type":"VEC2"
		},
		{
			"bufferView":37,
			"componentType":5126,
			"count":28,
			"type":"VEC2"
		},
		{
			"bufferView":38,
			"componentType":5123,
			"count":48,
			"type":"SCALAR"
		},
		{
			"bufferView":39,
			"componentType":5126,
			"count":18,
			"max":[
				0,
				400,
				600
			],
			"min":[
				-500,
				0,
				0
			],
			"type":"VEC3"
		},
		{
			"bufferView":40,
			"componentType":5126,
			"count":18,
			"type":"VEC3"
		},
		{
			"bufferView":41,
			"componentType":5126,
			"count":18,
			"type":"VEC2"
		},
		{
			"bufferView":42,
			"componentType":5126,
			"count":18,
			"type":"VEC2"
		},
		{
			"bufferView":43,
			"componentType":5126,
			"count":28,
			"max":[
				0,
				400,
				0
			],
			"min":[
				-200,
				0,
				-700
			],
			"type":"VEC3"
		},
		{
			"bufferView":44,
			"componentType":5126,
			"count":28,
			"type":"VEC3"
		},
		{
			"bufferView":45,
			"componentType":5126,
			"count":28,
			"type":"VEC2"
		},
		{
			"bufferView":46,
			"componentType":5126,
			"count":28,
			"type":"VEC2"
		},
		{
			"bufferView":47,
			"componentType":5126,
			"count":28,
			"max":[
				500,
				400,
				0
			],
			"min":[
				0,
				0,
				-1000
			],
			"type":"VEC3"
		},
		{
			"bufferView":48,
			"componentType":5126,
			"count":28,
			"type":"VEC3"
		},
		{
			"bufferView":49,
			"componentType":5126,
			"count":28,
			"type":"VEC2"
		},
		{
			"bufferView":50,
			"componentType":5126,
			"count":28,
			"type":"VEC2"
		},
		{
			"bufferView":51,
			"componentType":5123,
			"count":48,
			"type":"SCALAR"
		},
		{
			"bufferView":52,
			"componentType":5126,
			"count":28,
			"max":[
				0,
				400,
				0
			],
			"min":[
				-200,
				0,
				-700
			],
			"type":"VEC3"
		},
		{
			"bufferView":53,
			"componentType":5126,
			"count":28,
			"type":"VEC3"
		},
		{
			"bufferView":54,
			"componentType":5126,
			"count":28,
			"type":"VEC2"
		},
		{
			"bufferView":55,
			"componentType":5126,
			"count":28,
			"type":"VEC2"
		},
		{
			"bufferView":56,
			"componentType":5126,
			"count":28,
			"max":[
				0,
				400,
				0
			],
			"min":[
				-200,
				0,
				-700
			],
			"type":"VEC3"
		},
		{
			"bufferView":57,
			"componentType":5126,
			"count":28,
			"type":"VEC3"
		},
		{
			"bufferView":58,
			"componentType":5126,
			"count":28,
			"type":"VEC2"
		},
		{
			"bufferView":59,
			"componentType":5126,
			"count":28,
			"type":"VEC2"
		},
		{
			"bufferView":60,
			"componentType":5126,
			"count":28,
			"max":[
				0,
				400,
				0
			],
			"min":[
				-200,
				0,
				-700
			],
			"type":"VEC3"
		},
		{
			"bufferView":61,
			"componentType":5126,
			"count":28,
			"type":"VEC3"
		},
		{
			"bufferView":62,
			"componentType":5126,
			"count":28,
			"type":"VEC2"
		},
		{
			"bufferView":63,
			"componentType":5126,
			"count":28,
			"type":"VEC2"
		},
		{
			"bufferView":64,
			"componentType":5126,
			"count":18,
			"max":[
				0,
				400,
				200
			],
			"min":[
				-500,
				0,
				-500
			],
			"type":"VEC3"
		},
		{
			"bufferView":65,
			"componentType":5126,
			"count":18,
			"type":"VEC3"
		},
		{
			"bufferView":66,
			"componentType":5126,
			"count":18,
			"type":"VEC2"
		},
		{
			"bufferView":67,
			"componentType":5126,
			"count":18,
			"type":"VEC2"
		},
		{
			"bufferView":68,
			"componentType":5126,
			"count":28,
			"max":[
				0,
				400,
				0
			],
			"min":[
				-200,
				0,
				-700
			],
			"type":"VEC3"
		},
		{
			"bufferView":69,
			"componentType":5126,
			"count":28,
			"type":"VEC3"
		},
		{
			"bufferView":70,
			"componentType":5126,
			"count":28,
			"type":"VEC2"
		},
		{
			"bufferView":71,
			"componentType":5126,
			"count":28,
			"type":"VEC2"
		},
		{
			"bufferView":72,
			"componentType":5126,
			"count":18,
			"max":[
				0,
				400,
				200
			],
			"min":[
				-500,
				0,
				-500
			],
			"type":"VEC3"
		},
		{
			"bufferView":73,
			"componentType":5126,
			"count":18,
			"type":"VEC3"
		},
		{
			"bufferView":74,
			"componentType":5126,
			"count":18,
			"type":"VEC2"
		},
		{
			"bufferView":75,
			"componentType":5126,
			"count":18,
			"type":"VEC2"
		},
		{
			"bufferView":76,
			"componentType":5126,
			"count":24,
			"max":[
				100,
				100,
				100
			],
			"min":[
				0,
				0,
				0
			],
			"type":"VEC3"
		},
		{
			"bufferView":77,
			"componentType":5126,
			"count":24,
			"type":"VEC3"
		},
		{
			"bufferView":78,
			"componentType":5126,
			"count":24,
			"type":"VEC2"
		},
		{
			"bufferView":79,
			"componentType":5126,
			"count":24,
			"type":"VEC2"
		},
		{
			"bufferView":80,
			"componentType":5126,
			"count":24,
			"max":[
				0,
				100,
				100
			],
			"min":[
				-100,
				0,
				0
			],
			"type":"VEC3"
		},
		{
			"bufferView":81,
			"componentType":5126,
			"count":24,
			"type":"VEC3"
		},
		{
			"bufferView":82,
			"componentType":5126,
			"count":24,
			"type":"VEC2"
		},
		{
			"bufferView":83,
			"componentType":5126,
			"count":24,
			"type":"VEC2"
		},
		{
			"bufferView":84,
			"componentType":5126,
			"count":24,
			"max":[
				0,
				100,
				100
			],
			"min":[
				-100,
				0,
				0
			],
			"type":"VEC3"
		},
		{
			"bufferView":85,
			"componentType":5126,
			"count":24,
			"type":"VEC3"
		},
		{
			"bufferView":86,
			"componentType":5126,
			"count":24,
			"type":"VEC2"
		},
		{
			"bufferView":87,
			"componentType":5126,
			"count":24,
			"type":"VEC2"
		},
		{
			"bufferView":88,
			"componentType":5126,
			"count":24,
			"max":[
				0,
				100,
				100
			],
			"min":[
				-100,
				0,
				0
			],
			"type":"VEC3"
		},
		{
			"bufferView":89,
			"componentType":5126,
			"count":24,
			"type":"VEC3"
		},
		{
			"bufferView":90,
			"componentType":5126,
			"count":24,
			"type":"VEC2"
		},
		{
			"bufferView":91,
			"componentType":5126,
			"count":24,
			"type":"VEC2"
		},
		{
			"bufferView":92,
			"componentType":5126,
			"count":24,
			"max":[
				0,
				100,
				100
			],
			"min":[
				-100,
				0,
				0
			],
			"type":"VEC3"
		},
		{
			"bufferView":93,
			"componentType":5126,
			"count":24,
			"type":"VEC3"
		},
		{
			"bufferView":94,
			"componentType":5126,
			"count":24,
			"type":"VEC2"
		},
		{
			"bufferView":95,
			"componentType":5126,
			"count":24,
			"type":"VEC2"
		}
	],
	"bufferViews":[
		{
			"buffer":0,
			"byteLength":288,
			"byteOffset":0,
			"target":34962
		},
		{
			"buffer":0,
			"byteLength":288,
			"byteOffset":288,
			"target":34962
		},
		{
			"buffer":0,
			"byteLength":192,
			"byteOffset":576,
			"target":34962
		},
		{
			"buffer":0,
			"byteLength":192,
			"byteOffset":768,
			"target":34962
		},
		{
			"buffer":0,
			"byteLength":72,
			"byteOffset":960,
			"target":34963
		},
		{
			"buffer":0,
			"byteLength":288,
			"byteOffset":1032,
			"target":34962
		},
		{
			"buffer":0,
			"byteLength":288,
			"byteOffset":1320,
			"target":34962
		},
		{
			"buffer":0,
			"byteLength":192,
			"byteOffset":1608,
			"target":34962
		},
		{
			"buffer":0,
			"byteLength":192,
			"byteOffset":1800,
			"target":34962
		},
		{
			"buffer":0,
			"byteLength":288,
			"byteOffset":1992,
			"target":34962
		},
		{
			"buffer":0,
			"byteLength":288,
			"byteOffset":2280,
			"target":34962
		},
		{
			"buffer":0,
			"byteLength":192,
			"byteOffset":2568,
			"target":34962
		},
		{
			"buffer":0,
			"byteLength":192,
			"byteOffset":2760,
			"target":34962
		},
		{
			"buffer":0,
			"byteLength":288,
			"byteOffset":2952,
			"target":34962
		},
		{
			"buffer":0,
			"byteLength":288,
			"byteOffset":3240,
			"target":34962
		},
		{
			"buffer":0,
			"byteLength":192,
			"byteOffset":3528,
			"target":34962
		},
		{
			"buffer":0,
			"byteLength":192,
			"byteOffset":3720,
			"target":34962
		},
		{
			"buffer":0,
			"byteLength":288,
			"byteOffset":3912,
			"target":34962
		},
		{
			"buffer":0,
			"byteLength":288,
			"byteOffset":4200,
			"target":34962
		},
		{
			"buffer":0,
			"byteLength":192,
			"byteOffset":4488,
			"target":34962
		},
		{
			"buffer":0,
			"byteLength":192,
			"byteOffset":4680,
			"target":34962
		},
		{
			"buffer":0,
			"byteLength":288,
			"byteOffset":4872,
			"target":34962
		},
		{
			"buffer":0,
			"byteLength":288,
			"byteOffset":5160,
			"target":34962
		},
		{
			"buffer":0,
			"byteLength":192,
			"byteOffset":5448,
			"target":34962
		},
		{
			"buffer":0,
			"byteLength":192,
			"byteOffset":5640,
			"target":34962
		},
		{
			"buffer":0,
			"byteLength":216,
			"byteOffset":5832,
			"target":34962
		},
		{
			"buffer":0,
			"byteLength":216,
			"byteOffset":6048,
			"target":34962
		},
		{
			"buffer":0,
			"byteLength":144,
			"byteOffset":6264,
			"target":34962
		},
		{
			"buffer":0,
			"byteLength":144,
			"byteOffset":6408,
			"target":34962
		},
		{
			"buffer":0,
			"byteLength":48,
			"byteOffset":6552,
			"target":34963
		},
		{
			"buffer":0,
			"byteLength":216,
			"byteOffset":6600,
			"target":34962
		},
		{
			"buffer":0,
			"byteLength":216,
			"byteOffset":6816,
			"target":34962
		},
		{
			"buffer":0,
			"byteLength":144,
			"byteOffset":7032,
			"target":34962
		},
		{
			"buffer":0,
			"byteLength":144,
			"byteOffset":7176,
			"target":34962
		},
		{
			"buffer":0,
			"byteLength":336,
			"byteOffset":7320,
			"target":34962
		},
		{
			"buffer":0,
			"byteLength":336,
			"byteOffset":7656,
			"target":34962
		},
		{
			"buffer":0,
			"byteLength":224,
			"byteOffset":7992,
			"target":34962
		},
		{
			"buffer":0,
			"byteLength":224,
			"byteOffset":8216,
			"target":34962
		},
		{
			"buffer":0,
			"byteLength":96,
			"byteOffset":8440,
			"target":34963
		},
		{
			"buffer":0,
			"byteLength":216,
			"byteOffset":8536,
			"target":34962
		},
		{
			"buffer":0,
			"byteLength":216,
			"byteOffset":8752,
			"target":34962
		},
		{
			"buffer":0,
			"byteLength":144,
			"byteOffset":8968,
			"target":34962
		},
		{
			"buffer":0,
			"byteLength":144,
			"byteOffset":9112,
			"target":34962
		},
		{
			"buffer":0,
			"byteLength":336,
			"byteOffset":9256,
			"target":34962
		},
		{
			"buffer":0,
			"byteLength":336,
			"byteOffset":9592,
			"target":34962
		},
		{
			"buffer":0,
			"byteLength":224,
			"byteOffset":9928,
			"target":34962
		},
		{
			"buffer":0,
			"byteLength":224,
			"byteOffset":10152,
			"target":34962
		},
		{
			"buffer":0,
			"byteLength":336,
			"byteOffset":10376,
			"target":34962
		},
		{
			"buffer":0,
			"byteLength":336,
			"byteOffset":10712,
			"target":34962
		},
		{
			"buffer":0,
			"byteLength":224,
			"byteOffset":11048,
			"target":34962
		},
		{
			"buffer":0,
			"byteLength":224,
			"byteOffset":11272,
			"target":34962
		},
		{
			"buffer":0,
			"byteLength":96,
			"byteOffset":11496,
			"target":34963
		},
		{
			"buffer":0,
			"byteLength":336,
			"byteOffset":11592,
			"target":34962
		},
		{
			"buffer":0,
			"byteLength":336,
			"byteOffset":11928,
			"target":34962
		},
		{
			"buffer":0,
			"byteLength":224,
			"byteOffset":12264,
			"target":34962
		},
		{
			"buffer":0,
			"byteLength":224,
			"byteOffset":12488,
			"target":34962
		},
		{
			"buffer":0,
			"byteLength":336,
			"byteOffset":12712,
			"target":34962
		},
		{
			"buffer":0,
			"byteLength":336,
			"byteOffset":13048,
			"target":34962
		},
		{
			"buffer":0,
			"byteLength":224,
			"byteOffset":13384,
			"target":34962
		},
		{
			"buffer":0,
			"byteLength":224,
			"byteOffset":13608,
			"target":34962
		},
		{
			"buffer":0,
			"byteLength":336,
			"byteOffset":13832,
			"target":34962
		},
		{
			"buffer":0,
			"byteLength":336,
			"byteOffset":14168,
			"target":34962
		},
		{
			"buffer":0,
			"byteLength":224,
			"byteOffset":14504,
			"target":34962
		},
		{
			"buffer":0,
			"byteLength":224,
			"byteOffset":14728,
			"target":34962
		},
		{
			"buffer":0,
			"byteLength":216,
			"byteOffset":14952,
			"target":34962
		},
		{
			"buffer":0,
			"byteLength":216,
			"byteOffset":15168,
			"target":34962
		},
		{
			"buffer":0,
			"byteLength":144,
			"byteOffset":15384,
			"target":34962
		},
		{
			"buffer":0,
			"byteLength":144,
			"byteOffset":15528,
			"target":34962
		},
		{
			"buffer":0,
			"byteLength":336,
			"byteOffset":15672,
			"target":34962
		},
		{
			"buffer":0,
			"byteLength":336,
			"byteOffset":16008,
			"target":34962
		},
		{
			"buffer":0,
			"byteLength":224,
			"byteOffset":16344,
			"target":34962
		},
		{
			"buffer":0,
			"byteLength":224,
			"byteOffset":16568,
			"target":34962
		},
		{
			"buffer":0,
			"byteLength":216,
			"byteOffset":16792,
			"target":34962
		},
		{
			"buffer":0,
			"byteLength":216,
			"byteOffset":17008,
			"target":34962
		},
		{
			"buffer":0,
			"byteLength":144,
			"byteOffset":17224,
			"target":34962
		},
		{
			"buffer":0,
			"byteLength":144,
			"byteOffset":17368,
			"target":34962
		},
		{
			"buffer":0,
			"byteLength":288,
			"byteOffset":17512,
			"target":34962
		},
		{
			"buffer":0,
			"byteLength":288,
			"byteOffset":17800,
			"target":34962
		},
		{
			"buffer":0,
			"byteLength":192,
			"byteOffset":18088,
			"target":34962
		},
		{
			"buffer":0,
			"byteLength":192,
			"byteOffset":18280,
			"target":34962
		},
		{
			"buffer":0,
			"byteLength":288,
			"byteOffset":18472,
			"target":34962
		},
		{
			"buffer":0,
			"byteLength":288,
			"byteOffset":18760,
			"target":34962
		},
		{
			"buffer":0,
			"byteLength":192,
			"byteOffset":19048,
			"target":34962
		},
		{
			"buffer":0,
			"byteLength":192,
			"byteOffset":19240,
			"target":34962
		},
		{
			"buffer":0,
			"byteLength":288,
			"byteOffset":19432,
			"target":34962
		},
		{
			"buffer":0,
			"byteLength":288,
			"byteOffset":19720,
			"target":34962
		},
		{
			"buffer":0,
			"byteLength":192,
			"byteOffset":20008,
			"target":34962
		},
		{
			"buffer":0,
			"byteLength":192,
			"byteOffset":20200,
			"target":34962
		},
		{
			"buffer":0,
			"byteLength":288,
			"byteOffset":20392,
			"target":34962
		},
		{
			"buffer":0,
			"byteLength":288,
			"byteOffset":20680,
			"target":34962
		},
		{
			"buffer":0,
			"byteLength":192,
			"byteOffset":20968,
			"target":34962
		},
		{
			"buffer":0,
			"byteLength":192,
			"byteOffset":21160,
			"target":34962
		},
		{
			"buffer":0,
			"byteLength":288,
			"byteOffset":21352,
			"target":34962
		},
		{
			"buffer":0,
			"byteLength":288,
			"byteOffset":21640,
			"target":34962
		},
		{
			"buffer":0,
			"byteLength":192,
			"byteOffset":21928,
			"target":34962
		},
		{
			"buffer":0,
			"byteLength":192,
			"byteOffset":22120,
			"target":34962
		}
	],
	"samplers":[
		{
			"magFilter":9729,
			"minFilter":9987
		}
	],
	"buffers":[
		{
			"byteLength":22312,
			"uri":"park.bin"
		}
	]
}
